<svg id="Layer_1" data-name="Layer 1" xmlns="http://www.w3.org/2000/svg" viewBox="0 0 143.67 34.84"><defs><style>.cls-1{fill:#29826b;}.cls-2{fill:#78c4a2;}.cls-3{fill:#fff;}</style></defs><title>threekit_logo_inverted</title><path class="cls-1" d="M22.57,25.76l-8.64-4.32a3.9,3.9,0,0,1-2.16-3.5V8.77l-3.93-2V19.9A3.94,3.94,0,0,0,10,23.41l12.25,6.12Z"/><path class="cls-1" d="M6.09,25.37a3.94,3.94,0,0,1-2.17-3.51V6.63L2.84,6.09A2,2,0,0,0,0,7.84v16a3.94,3.94,0,0,0,2.17,3.51l14.6,7.3a2,2,0,0,0,2.84-1.76v-.74Z"/><path class="cls-2" d="M29.21,7.51,14.6.2a1.92,1.92,0,0,0-1.73,0v0l-4,2h0a1.91,1.91,0,0,1,1.77,0l14.6,7.31A3.91,3.91,0,0,1,27.45,13V29a1.94,1.94,0,0,1-1.12,1.76h0v0l4-2h0A1.93,1.93,0,0,0,31.37,27V11A3.9,3.9,0,0,0,29.21,7.51Z"/><path class="cls-2" d="M21.36,11.43,6.76,4.13A1.92,1.92,0,0,0,5,4.13v0l-4,2h0a1.94,1.94,0,0,1,1.77,0l14.6,7.3a3.91,3.91,0,0,1,2.17,3.51v16a1.94,1.94,0,0,1-1.12,1.76h0v0l4-2h0a1.92,1.92,0,0,0,1.09-1.74v-16A3.91,3.91,0,0,0,21.36,11.43Z"/><path class="cls-3" d="M43.78,15.21H41.07V12.32h2.71V8h3.31v4.34h3.73v2.89H47.09v8.1a1.92,1.92,0,0,0,.36,1.31,1.64,1.64,0,0,0,1.24.39h2.46v2.86H48a4.39,4.39,0,0,1-3.21-1,4.38,4.38,0,0,1-1-3.19Z"/><path class="cls-3" d="M65.35,13.84q1.74,1.71,1.74,5.47v8.56H63.81V19.49a5.15,5.15,0,0,0-1-3.37A3.4,3.4,0,0,0,60.08,15a3.73,3.73,0,0,0-3,1.36A5.63,5.63,0,0,0,55.92,20v7.87H52.64V6.62h3.28v8a5.67,5.67,0,0,1,4.89-2.46A6.26,6.26,0,0,1,65.35,13.84Z"/><path class="cls-3" d="M78.36,12.32v3.07H76.9A3.3,3.3,0,0,0,74,16.71,5.82,5.82,0,0,0,73,20.1v7.77H69.77V12.32h2.91L73,14.69A4.84,4.84,0,0,1,74.78,13a5.52,5.52,0,0,1,2.85-.63Z"/><path class="cls-3" d="M79.8,15.92a6.9,6.9,0,0,1,2.67-2.79,7.75,7.75,0,0,1,3.93-1,8.33,8.33,0,0,1,4,.91,6.84,6.84,0,0,1,2.7,2.58,7.77,7.77,0,0,1,1,3.92,7.58,7.58,0,0,1-.1,1.24H82.27V21a4.91,4.91,0,0,0,1.28,3.22,4.16,4.16,0,0,0,3.1,1.18,4.43,4.43,0,0,0,2.53-.71,3.35,3.35,0,0,0,1.38-2h3.28a6.4,6.4,0,0,1-2.32,3.88,7.1,7.1,0,0,1-4.66,1.52,8.71,8.71,0,0,1-4.24-1,6.89,6.89,0,0,1-2.79-2.77,8.47,8.47,0,0,1-1-4.16A8.86,8.86,0,0,1,79.8,15.92Zm11,2.51a4,4,0,0,0-1.36-2.69,4.26,4.26,0,0,0-2.86-1,4.16,4.16,0,0,0-2.78,1,3.91,3.91,0,0,0-1.35,2.65Z"/><path class="cls-3" d="M96.8,15.92a6.9,6.9,0,0,1,2.67-2.79,7.76,7.76,0,0,1,3.94-1,8.32,8.32,0,0,1,4,.91,6.84,6.84,0,0,1,2.7,2.58,7.77,7.77,0,0,1,1,3.92,8.83,8.83,0,0,1-.09,1.24H99.28V21a4.86,4.86,0,0,0,1.27,3.22,4.16,4.16,0,0,0,3.1,1.18,4.4,4.4,0,0,0,2.53-.71,3.41,3.41,0,0,0,1.39-2h3.27a6.36,6.36,0,0,1-2.32,3.88,7.1,7.1,0,0,1-4.66,1.52,8.64,8.64,0,0,1-4.23-1,6.85,6.85,0,0,1-2.8-2.77,8.47,8.47,0,0,1-1-4.16A8.86,8.86,0,0,1,96.8,15.92Zm11,2.51a4,4,0,0,0-1.35-2.69,4.31,4.31,0,0,0-2.87-1,4.16,4.16,0,0,0-2.78,1,3.91,3.91,0,0,0-1.35,2.65Z"/><path class="cls-3" d="M116.7,6.62V19.91l7.11-7.59h3.79l-5.79,6.26L128,27.87h-3.89L119.47,21l-2.77,2.91v4h-3.27V6.62Z"/><path class="cls-3" d="M132.49,6.68a1.81,1.81,0,0,1,.58,1.39,1.86,1.86,0,0,1-.58,1.41,2.07,2.07,0,0,1-2.85,0,1.86,1.86,0,0,1-.58-1.41,1.81,1.81,0,0,1,.58-1.39,2.12,2.12,0,0,1,2.85,0Zm.22,5.64V27.87h-3.28V12.32Z"/><path class="cls-3" d="M136.62,15.21h-2.7V12.32h2.7V8h3.31v4.34h3.74v2.89h-3.74v8.1a1.87,1.87,0,0,0,.37,1.31,1.63,1.63,0,0,0,1.24.39H144v2.86h-3.16a4.36,4.36,0,0,1-3.2-1,4.38,4.38,0,0,1-1-3.19Z"/></svg>